<svg width="41" height="24" viewBox="0 0 21 21" fill="none" xmlns="http://www.w3.org/2000/svg">
<path d="M16.9122 20.3584H4.08075C3.63137 20.3578 3.18696 20.2644 2.77534 20.084C2.36373 19.9037 1.99377 19.6404 1.68863 19.3105C1.3835 18.9806 1.14975 18.5912 1.00202 18.1668C0.854288 17.7424 0.795763 17.2921 0.830104 16.844L1.96355 2.25891C1.98506 2.00175 2.10263 1.76212 2.29286 1.58775C2.48309 1.41337 2.73201 1.31704 2.99007 1.31794H18.0029C18.2602 1.31718 18.5083 1.41375 18.6974 1.58827C18.8864 1.7628 19.0025 2.00237 19.0223 2.25891L20.1415 16.844C20.1768 17.2905 20.1196 17.7395 19.9736 18.1629C19.8275 18.5864 19.5957 18.9751 19.2927 19.3049C18.9896 19.6347 18.6218 19.8985 18.2123 20.0798C17.8027 20.261 17.3601 20.3559 16.9122 20.3584V20.3584Z" stroke="white" stroke-width="1.28315" stroke-linecap="round" stroke-linejoin="round"/>
</svg>
