<svg width="11" height="11" viewBox="0 0 11 11" fill="none" xmlns="http://www.w3.org/2000/svg">
    <path d="M5.49997 9.46344C4.72799 9.46344 3.97336 9.23452 3.33148 8.80564C2.68961 8.37675 2.18934 7.76716 1.89391 7.05395C1.59849 6.34074 1.5212 5.55595 1.6718 4.79881C1.82241 4.04167 2.19415 3.34619 2.74001 2.80032C3.28588 2.25446 3.98136 1.88272 4.7385 1.73211C5.49564 1.58151 6.28043 1.6588 6.99364 1.95422C7.70685 2.24965 8.31644 2.74992 8.74533 3.3918C9.17421 4.03367 9.40313 4.7883 9.40313 5.56028C9.40095 6.59479 8.98903 7.58631 8.25752 8.31783C7.526 9.04934 6.53448 9.46126 5.49997 9.46344V9.46344Z" stroke="white" stroke-width="1.48221" stroke-linecap="round" stroke-linejoin="round" />
</svg>
